# xmcd CD database file
#
# Track frame offsets:
#	150
#	14070
#	22565
#	33765
#	52277
#	64555
#	82110
#	92500
#	104935
#	122127
#	133027
#	144755
#	161485
#	176812
#	193960
#	217850
#
# Disc length: 3108 seconds
#
# Revision: 4
# Processed by: cddbd v1.4PL0 Copyright (c) Steve Scherf et al.
# Submitted via: CDex 1.50beta10
#
DISCID=df0c2210
DTITLE=Graeme Allwright - Master Serie
DYEAR=1900
DGENRE=Chanson
TTITLE0=Emmène-moi
TTITLE1=Petites boîtes
TTITLE2=Le jour de clarté
TTITLE3=Suzanne
TTITLE4=Petit garçon
TTITLE5=Demain sera bien
TTITLE6=Qu'as-tu appris à l'école ?
TTITLE7=Jolie bouteille
TTITLE8=Il faut que je m'en aille
TTITLE9=Ca je ne l'ai jamais vu
TTITLE10=Qui a tué Davy Moore ?
TTITLE11=La petite souris
TTITLE12=Ballade de la désescalade
TTITLE13=Jusqu'à la ceinture
TTITLE14=L'étranger
TTITLE15=Lover, lover, lover
EXTD=42283-08792 Polygram distribution
EXTT0=
EXTT1=
EXTT2=
EXTT3=
EXTT4=
EXTT5=
EXTT6=
EXTT7=
EXTT8=
EXTT9=
EXTT10=
EXTT11=
EXTT12=
EXTT13=
EXTT14=
EXTT15=
PLAYORDER=
